<svg width="39" height="39" viewBox="0 0 39 39" fill="none" xmlns="http://www.w3.org/2000/svg">
<path d="M16.8587 27.2975H3.56568C3.25671 27.2975 3.00511 27.0313 3.00511 26.7046V3.83644C3.00511 3.50983 3.25679 3.2437 3.56568 3.2437H35.4331C35.7422 3.2437 35.9937 3.50983 35.9937 3.83644V8.84483C36.927 8.96137 37.8016 9.2848 38.5454 9.81647V3.83644C38.5454 2.02173 37.1487 0.545532 35.433 0.545532H3.56568C1.85 0.545532 0.453369 2.02164 0.453369 3.83644V26.7045C0.453369 28.5193 1.85 29.9956 3.56568 29.9956H14.2471V34.407H12.5627C11.5061 34.407 10.6489 35.3128 10.6489 36.4306C10.6489 37.5485 11.5061 38.4543 12.5627 38.4543H17.9352C17.2637 37.4557 16.8588 36.2435 16.8588 34.9274V27.2975H16.8587Z" fill="#652B5A"/>
<path d="M27.5687 36.4134V33.4986H21.9621V14.8812C21.9621 14.4885 22.2636 14.169 22.6348 14.169H35.3211C35.6923 14.169 35.9938 14.4885 35.9938 14.8812V20.643H36.9496C37.5338 20.643 38.0746 20.8215 38.5454 21.1126V14.8812C38.5454 13.0005 37.099 11.4709 35.321 11.4709H22.6348C20.8569 11.4709 19.4104 13.0005 19.4104 14.8812V34.9273C19.4104 36.808 20.8569 38.3375 22.6348 38.3375H28.1444C27.793 37.804 27.5687 37.0606 27.5687 36.4134Z" fill="#652B5A"/>
<path d="M36.9496 22.3293H30.761C29.8799 22.3293 29.1636 23.0875 29.1636 24.0189V36.4133C29.1636 37.3447 29.8799 38.1023 30.761 38.1023H36.9496C37.8304 38.1023 38.5468 37.3447 38.5468 36.4133V24.0188C38.5468 23.0875 37.8304 22.3293 36.9496 22.3293ZM31.0773 24.3529H36.633V35.0669H31.0773V24.3529ZM33.8559 37.2815C33.6801 37.2815 33.5232 37.2063 33.4036 37.0905C33.2677 36.96 33.1805 36.7768 33.1805 36.568C33.1805 36.1741 33.4821 35.8552 33.8559 35.8552C34.2271 35.8552 34.5287 36.1741 34.5287 36.568C34.5287 36.7768 34.4414 36.9599 34.3069 37.0905C34.1872 37.2064 34.0302 37.2815 33.8559 37.2815Z" fill="#652B5A"/>
</svg>
