<svg width="90" height="90" viewBox="0 0 90 90" fill="none" xmlns="http://www.w3.org/2000/svg">
<g clip-path="url(#clip0)">
<rect width="90" height="90" fill="white"/>
<path d="M89.6494 0.348877H0.350464V89.6512H89.6494V0.348877Z" stroke="#808080" stroke-width="1.25609" stroke-linecap="round" stroke-linejoin="round"/>
<path d="M79.9968 41.3163C78.6092 40.8546 68.9569 38.7553 68.9569 38.7553C68.9569 38.7553 51.0641 28.6294 48.9167 28.6294C46.7694 28.6294 32.0393 28.6359 32.0393 28.6359C28.4404 28.6359 25.4327 31.3652 21.9503 34.5251C20.3092 36.0139 18.4976 37.6525 16.4995 39.11L9.05763 40.0948C7.98227 40.436 7.20337 41.4374 7.20337 42.6205V51.106C7.20337 52.5704 8.39607 53.7576 9.86766 53.7576H14.9814C15.3529 58.0169 18.9529 61.3705 23.3276 61.3705C27.702 61.3705 31.3023 58.0168 31.6737 53.7577H56.0917C56.4631 58.017 60.0631 61.3705 64.4378 61.3705C68.8124 61.3705 72.4125 58.0168 72.7839 53.7577H76.9851C80.3139 53.7577 81.9406 52.3269 82.349 50.9838C83.3819 47.5851 82.6389 42.1954 79.9968 41.3163ZM23.3276 57.3514C20.9338 57.3514 18.9862 55.4134 18.9862 53.0311C18.9862 50.6488 20.9335 48.7105 23.3276 48.7105C25.7214 48.7105 27.6687 50.6486 27.6687 53.0311C27.6689 55.4134 25.7214 57.3514 23.3276 57.3514ZM39.4426 38.7555H24.883C25.9361 37.9275 26.9098 37.0486 27.8068 36.235C30.1643 34.0958 32.2004 32.2483 34.6367 32.2483C34.6367 32.2483 36.8415 32.2473 39.4427 32.2462V38.7555H39.4426ZM42.988 32.2448C44.7899 32.2442 46.3961 32.2437 47.2019 32.2437C49.2085 32.2437 57.3471 36.9473 60.4016 38.7556H42.988V32.2448ZM64.4377 57.3514C62.0439 57.3514 60.0965 55.4134 60.0965 53.0311C60.0965 50.6488 62.0439 48.7105 64.4377 48.7105C66.8314 48.7105 68.7791 50.6486 68.7791 53.0311C68.7791 55.4134 66.8314 57.3514 64.4377 57.3514Z" fill="#652B5A"/>
</g>
<defs>
<clipPath id="clip0">
<rect width="90" height="90" fill="white"/>
</clipPath>
</defs>
</svg>
