<svg width="90" height="90" viewBox="0 0 90 90" fill="none" xmlns="http://www.w3.org/2000/svg">
<g clip-path="url(#clip0)">
<rect width="90" height="90" fill="white"/>
<path d="M89.6494 0.348877H0.350464V89.6512H89.6494V0.348877Z" stroke="#808080" stroke-width="1.25609" stroke-linecap="round" stroke-linejoin="round"/>
<path d="M31.838 44.2837C34.5716 42.4289 36.8189 38.2436 36.8189 34.9532V21.2916L22.0111 14.0696L7.20337 21.2718V34.9532C7.20337 38.2423 9.44167 42.4283 12.1747 44.2837L22.0086 50.9479L31.838 44.2837ZM20.0068 37.7703H20.0042C19.6961 37.7589 19.4047 37.6272 19.1931 37.4033L15.1167 33.2924C14.6712 32.8395 14.675 32.1144 15.1243 31.6659C15.5743 31.2232 16.2991 31.2264 16.7446 31.6742L20.0112 34.9576L27.2521 27.7534C27.7021 27.3082 28.4301 27.3107 28.8775 27.7591C29.3249 28.2069 29.3223 28.9314 28.8717 29.3767L20.8166 37.4071C20.605 37.6291 20.3142 37.7589 20.0068 37.7703Z" fill="#652B5A"/>
<path d="M70.6445 50.4714H80.8332C80.6203 50.3086 80.3934 49.9918 80.1493 49.7667L70.9308 41.2961C70.7135 41.0703 70.4675 40.875 70.1978 40.7153V50.0821C70.2163 50.3111 70.4144 50.4835 70.6445 50.4714Z" fill="#652B5A"/>
<path d="M25.9266 64.8365C23.269 64.717 20.8965 66.4821 20.2599 69.0524C19.6233 71.6228 20.9003 74.2829 23.3093 75.4055C25.7182 76.5282 28.5886 75.8012 30.1654 73.6684C31.7415 71.5363 31.585 68.5926 29.7915 66.6379C28.797 65.547 27.4049 64.8982 25.9266 64.8365Z" fill="#652B5A"/>
<path d="M70.6445 52.7511C69.1495 52.7619 67.9268 51.5699 67.907 50.0822V39.5386C67.094 39.2492 66.2395 39.0921 65.376 39.073H60.2168V69.0346H63.2515C63.8817 65.4522 67.1177 62.5187 71.0056 62.5187C74.8935 62.5187 78.1302 65.4522 78.7597 69.0346H82.7966V55.7674C82.7864 54.7344 82.585 53.7116 82.2028 52.7511H70.6445Z" fill="#652B5A"/>
<path d="M13.7483 69.0346H17.9187C18.2287 67.3255 19.0884 65.7627 20.3686 64.5827C22.4925 62.6548 25.5041 62.0321 28.2237 62.9595C30.9433 63.8862 32.9393 66.2155 33.4296 69.0346H57.9261V56.1707H13.7483V69.0346Z" fill="#652B5A"/>
<path d="M71.0056 64.8308C67.9262 64.8308 65.4291 67.3159 65.4291 70.3805C65.4291 73.4458 67.9262 75.9303 71.0056 75.9303C74.0857 75.9303 76.5822 73.4452 76.5822 70.3805C76.5784 67.3172 74.0838 64.8346 71.0056 64.8308Z" fill="#652B5A"/>
<path d="M52.8897 30.4427H39.1097V34.9531C39.1097 39.0418 36.5217 43.8626 33.1253 46.1671L22.635 53.2689C22.4426 53.398 22.2157 53.4673 21.9831 53.4667C21.7491 53.4673 21.5203 53.398 21.3254 53.2689L13.7483 48.144V53.891H57.9261V35.4983C57.9357 34.1619 57.4097 32.877 56.4638 31.9286C55.5185 30.9796 54.2325 30.4447 52.8897 30.4427Z" fill="#652B5A"/>
</g>
<defs>
<clipPath id="clip0">
<rect width="90" height="90" fill="white"/>
</clipPath>
</defs>
</svg>
