<svg width="307" height="438" viewBox="0 0 307 438" fill="none" xmlns="http://www.w3.org/2000/svg">
<path d="M261.673 44.9794C232.75 16.0561 194.292 0.125092 153.391 0.125092C112.481 0.125092 74.0312 16.0561 45.1079 44.9794C-8.41845 98.4978 -15.0704 199.194 30.7022 260.203L153.391 437.384L275.895 260.451C321.852 199.194 315.2 98.4978 261.673 44.9794ZM154.804 207.747C123.988 207.747 98.9059 182.664 98.9059 151.849C98.9059 121.033 123.988 95.9505 154.804 95.9505C185.62 95.9505 210.702 121.033 210.702 151.849C210.702 182.664 185.62 207.747 154.804 207.747Z" fill="#652B5A"/>
<path d="M77.3595 86.6476C76.9949 85.5539 75.9012 84.8247 74.8074 84.8247H54.7553C53.4793 84.8247 52.5678 85.5539 52.2032 86.6476L48.3751 97.5851V112.169C48.3751 113.262 49.1043 113.991 50.198 113.991H52.021C53.1147 113.991 53.8439 113.262 53.8439 112.169V110.346H75.7189V112.169C75.7189 113.262 76.448 113.991 77.5418 113.991H79.3647C80.4585 113.991 81.1876 113.262 81.1876 112.169V97.5851L77.3595 86.6476ZM54.7553 104.877C53.297 104.877 52.021 103.601 52.021 102.142C52.021 100.684 53.297 99.4081 54.7553 99.4081C56.2137 99.4081 57.4897 100.684 57.4897 102.142C57.4897 103.601 56.2137 104.877 54.7553 104.877ZM74.8074 104.877C73.3491 104.877 72.073 103.601 72.073 102.142C72.073 100.684 73.3491 99.4081 74.8074 99.4081C76.2657 99.4081 77.5418 100.684 77.5418 102.142C77.5418 103.601 76.2657 104.877 74.8074 104.877ZM52.021 95.7622L54.7553 87.5591H74.8074L77.5418 95.7622H52.021Z" fill="white"/>
<path d="M168.276 39.0737C168.871 38.4195 168.814 37.4168 168.148 36.8348L153.484 24.0034C152.818 23.4214 151.751 23.4335 151.1 24.0309L136.385 37.5189C135.734 38.1163 135.702 39.1176 136.315 39.7546L136.684 40.1388C137.296 40.7757 138.285 40.8516 138.892 40.3079L139.991 39.3231V53.7404C139.991 54.625 140.708 55.3411 141.592 55.3411H147.328C148.212 55.3411 148.928 54.625 148.928 53.7404V43.6541H156.244V53.7404C156.231 54.6243 156.864 55.3404 157.748 55.3404H163.826C164.71 55.3404 165.427 54.6243 165.427 53.7398V39.5261C165.427 39.5261 165.731 39.7922 166.105 40.1215C166.479 40.4502 167.265 40.1867 167.86 39.5319L168.276 39.0737Z" fill="white" fill-opacity="0.25"/>
<path d="M244.343 93.9339C244.885 93.9339 245.401 94.0472 245.87 94.2508C245.905 93.4851 246.169 92.7771 246.592 92.191C246.294 92.1287 245.987 92.0955 245.672 92.0955H242.689C242.375 92.0955 242.067 92.1283 241.772 92.19C242.223 92.8159 242.492 93.5799 242.497 94.4072C243.045 94.1058 243.674 93.9339 244.343 93.9339Z" fill="white" fill-opacity="0.25"/>
<path d="M244.18 91.8557C246.121 91.8557 247.695 90.2818 247.695 88.3402C247.695 86.3986 246.121 84.8247 244.18 84.8247C242.238 84.8247 240.664 86.3986 240.664 88.3402C240.664 90.2818 242.238 91.8557 244.18 91.8557Z" fill="white" fill-opacity="0.25"/>
<path d="M249.701 97.8543C251.49 97.8543 252.94 96.404 252.94 94.6155C252.94 92.8263 251.49 91.3767 249.701 91.3767C247.929 91.3767 246.492 92.8005 246.465 94.5666C247.486 95.207 248.202 96.2902 248.333 97.5475C248.749 97.7424 249.211 97.8543 249.701 97.8543Z" fill="white" fill-opacity="0.25"/>
<path d="M238.659 91.3764C236.87 91.3764 235.42 92.8263 235.42 94.6152C235.42 96.4041 236.87 97.8537 238.659 97.8537C239.293 97.8537 239.882 97.6685 240.382 97.354C240.541 96.3187 241.096 95.4134 241.889 94.7971C241.892 94.7364 241.898 94.6765 241.898 94.6152C241.898 92.8263 240.447 91.3764 238.659 91.3764Z" fill="white" fill-opacity="0.25"/>
<path d="M251.805 91.3074C252.826 91.9478 253.542 93.031 253.673 94.2886C254.088 94.4832 254.551 94.5954 255.041 94.5954C256.83 94.5954 258.28 93.1455 258.28 91.3566C258.28 89.5677 256.83 88.1178 255.041 88.1178C253.269 88.1174 251.832 89.5416 251.805 91.3074Z" fill="white" fill-opacity="0.25"/>
<path d="M244.343 101.198C246.132 101.198 247.582 99.7481 247.582 97.9592C247.582 96.1703 246.132 94.7201 244.343 94.7201C242.554 94.7201 241.104 96.1703 241.104 97.9592C241.104 99.7481 242.554 101.198 244.343 101.198Z" fill="white" fill-opacity="0.25"/>
<path d="M251.076 98.0751H248.348C248.318 99.1663 247.853 100.149 247.116 100.855C249.148 101.46 250.636 103.345 250.636 105.572V106.608C253.329 106.508 254.881 105.746 254.983 105.693L255.199 105.584H255.222V102.222C255.222 99.9353 253.362 98.0751 251.076 98.0751Z" fill="white" fill-opacity="0.25"/>
<path d="M256.415 94.8161H253.688C253.659 95.9074 253.193 96.8901 252.457 97.5964C254.489 98.2013 255.976 100.086 255.976 102.313V103.348C258.669 103.249 260.221 102.487 260.323 102.434L260.539 102.325H260.563V98.9633C260.563 96.6767 258.702 94.8161 256.415 94.8161Z" fill="white" fill-opacity="0.25"/>
<path d="M241.568 100.855C240.835 100.152 240.371 99.1746 240.337 98.0904C240.236 98.0831 240.136 98.0747 240.032 98.0747H237.285C234.998 98.0747 233.137 99.9353 233.137 102.222V105.584L233.146 105.636L233.377 105.709C235.128 106.256 236.691 106.507 238.048 106.587V105.572C238.048 103.345 239.535 101.46 241.568 100.855Z" fill="white" fill-opacity="0.25"/>
<path d="M245.717 101.419H242.968C240.682 101.419 238.821 103.28 238.821 105.566V108.928L238.83 108.981L239.061 109.053C241.243 109.734 243.139 109.962 244.699 109.962C247.748 109.962 249.514 109.093 249.623 109.038L249.84 108.928H249.862V105.566C249.863 103.28 248.003 101.419 245.717 101.419Z" fill="white" fill-opacity="0.25"/>
<path d="M233.272 94.6986C233.762 94.6986 234.224 94.5864 234.64 94.3918C234.771 93.1341 235.487 92.0506 236.508 91.4102C236.481 89.6448 235.044 88.2206 233.272 88.2206C231.482 88.2206 230.033 89.6706 230.033 91.4598C230.033 93.2487 231.482 94.6986 233.272 94.6986Z" fill="white" fill-opacity="0.25"/>
<path d="M235.856 97.7C235.12 96.9936 234.654 96.0105 234.625 94.919H231.897C229.61 94.9193 227.75 96.7799 227.75 99.0665V102.428H227.773L227.99 102.538C228.092 102.589 229.644 103.353 232.337 103.451V102.416C232.337 100.19 233.823 98.3045 235.856 97.7Z" fill="white" fill-opacity="0.25"/>
<path d="M237.06 91.0562C237.448 90.8988 238.041 90.7055 238.607 90.7055C239.266 90.7055 239.911 90.875 240.485 91.1976C240.613 91.0719 240.73 90.9353 240.837 90.7889C240.291 90.0718 239.993 89.193 239.993 88.289C239.993 87.68 240.129 87.0758 240.388 86.5268C239.798 85.9936 239.045 85.7026 238.245 85.7026C236.789 85.7026 235.521 86.6883 235.15 88.0766C236.238 88.7096 236.946 89.8163 237.06 91.0562Z" fill="white" fill-opacity="0.25"/>
<path d="M247.55 90.6056C247.663 90.7845 247.794 90.953 247.944 91.1097C248.476 90.8445 249.061 90.7051 249.649 90.7051C250.228 90.7051 250.783 90.8532 251.147 90.9771C251.261 89.633 252.074 88.4467 253.291 87.8455C252.845 86.571 251.637 85.7012 250.269 85.7012C249.385 85.7012 248.548 86.0643 247.943 86.7033C248.156 87.2098 248.263 87.742 248.263 88.2876C248.263 89.1232 248.017 89.9197 247.55 90.6056Z" fill="white" fill-opacity="0.25"/>
<path d="M251.847 187.565C247.959 187.565 245.464 190.257 244.156 192.682C242.849 190.257 240.353 187.565 236.466 187.565C231.534 187.565 227.75 191.567 227.75 196.874C227.75 198.259 228.027 199.538 228.538 200.767H235.872L237.529 197.453C237.855 196.801 238.922 196.801 239.248 197.453L242.234 203.423L243.296 201.298C243.623 200.646 244.69 200.646 245.016 201.298L246.079 203.423L249.064 197.453C249.391 196.801 250.457 196.801 250.784 197.453L252.441 200.767H259.775C260.285 199.538 260.563 198.259 260.563 196.874C260.563 191.567 256.779 187.565 251.847 187.565Z" fill="white" fill-opacity="0.25"/>
<path d="M251.847 202.689C251.483 202.689 251.15 202.484 250.987 202.158L249.924 200.032L246.939 206.003C246.775 206.329 246.443 206.534 246.079 206.534C245.715 206.534 245.382 206.329 245.219 206.003L244.156 203.878L243.094 206.003C242.767 206.655 241.701 206.655 241.374 206.003L238.389 200.032L237.326 202.158C237.162 202.484 236.83 202.689 236.466 202.689H229.547C231.525 205.802 235.089 208.759 239.546 212.521C240.797 213.577 242.129 214.701 243.526 215.913C243.708 216.069 243.932 216.147 244.156 216.147C244.381 216.147 244.605 216.069 244.786 215.913C246.184 214.701 247.515 213.577 248.767 212.521C253.224 208.759 256.787 205.802 258.766 202.689H251.847Z" fill="white" fill-opacity="0.25"/>
<path d="M80.7574 190.255C77.6587 187.156 73.5386 185.45 69.1564 185.45C64.7741 185.45 60.654 187.156 57.5553 190.255C54.4566 193.354 52.7501 197.474 52.7501 201.856C52.7501 206.238 54.4566 210.358 57.5553 213.457C60.654 216.556 64.7741 218.262 69.1564 218.262C73.5386 218.262 77.6587 216.556 80.7574 213.457C83.856 210.358 85.5626 206.238 85.5626 201.856C85.5626 197.474 83.856 193.354 80.7574 190.255ZM69.1564 216.34C61.17 216.34 54.6727 209.842 54.6727 201.856C54.6727 193.87 61.17 187.372 69.1564 187.372C77.1427 187.372 83.64 193.87 83.64 201.856C83.64 209.842 77.1427 216.34 69.1564 216.34Z" fill="white" fill-opacity="0.25"/>
<path d="M79.2815 203.009H76.2954V200.139H79.2815C79.7301 200.139 80.0939 199.775 80.0939 199.327C80.0939 198.878 79.7301 198.514 79.2815 198.514H76.2954V194.532C76.2954 193.951 76.1805 193.524 75.954 193.264C75.7389 193.017 75.4559 192.902 75.0641 192.902C74.6902 192.902 74.418 193.016 74.207 193.262C73.9831 193.522 73.8694 193.95 73.8694 194.532V198.515H68.2526L65.8643 194.901C65.6599 194.578 65.4677 194.276 65.2811 193.986C65.1131 193.725 64.9491 193.512 64.7943 193.354C64.6573 193.213 64.5012 193.104 64.3184 193.021C64.1461 192.942 63.927 192.902 63.6677 192.902C63.3371 192.902 63.037 192.993 62.7495 193.179C62.4652 193.363 62.2685 193.591 62.1485 193.875C62.0431 194.145 61.9874 194.559 61.9874 195.093V198.514H59.0309C58.5823 198.515 58.2189 198.878 58.2189 199.327C58.2189 199.776 58.5823 200.139 59.0309 200.139H61.9874V203.009H59.0309C58.5823 203.009 58.2189 203.373 58.2189 203.822C58.2189 204.27 58.5823 204.633 59.0309 204.633H61.9874V209.18C61.9874 209.744 62.1059 210.166 62.3406 210.435C62.5639 210.691 62.847 210.809 63.2314 210.809C63.6024 210.809 63.8832 210.69 64.1161 210.434C64.3546 210.171 64.4753 209.749 64.4753 209.18V204.633H69.558L72.3086 208.851C72.4998 209.13 72.6973 209.411 72.8942 209.687C73.0719 209.935 73.2657 210.153 73.4703 210.336C73.6545 210.501 73.852 210.621 74.0572 210.695C74.2686 210.771 74.5155 210.81 74.7896 210.81C75.5334 210.81 76.2953 210.582 76.2953 208.893V204.633H79.2813C79.73 204.633 80.0938 204.27 80.0938 203.821C80.0938 203.372 79.7301 203.009 79.2815 203.009ZM73.8694 200.139V203.009H71.2229L69.3266 200.139H73.8694ZM64.4754 196.841L65.5667 198.514H64.4754V196.841ZM64.4754 203.009V200.139H66.6265L68.4984 203.009H64.4754ZM73.8694 207.014L72.2965 204.633H73.8694V207.014Z" fill="white" fill-opacity="0.25"/>
</svg>
