<svg width="90" height="90" viewBox="0 0 90 90" fill="none" xmlns="http://www.w3.org/2000/svg">
<g clip-path="url(#clip0)">
<rect width="90" height="90" fill="white"/>
<path d="M89.6494 0.348877H0.350464V89.6512H89.6494V0.348877Z" stroke="#808080" stroke-width="1.25609" stroke-linecap="round" stroke-linejoin="round"/>
<path d="M81.8244 61.4927H79.4627V48.348C79.4627 46.81 78.9963 45.3011 78.1312 44.0244L72.2122 35.2999C70.764 33.1719 68.3537 31.8951 65.7684 31.8951H56.5935C55.5147 31.8951 54.6497 32.7657 54.6497 33.8297V61.4929H39.6237C41.0524 62.7212 42.034 64.4333 42.3159 66.3679H58.1582C58.7218 62.528 62.0459 59.5584 66.0599 59.5584C70.074 59.5584 73.3882 62.528 73.9521 66.3679H81.8245C82.3591 66.3679 82.7965 65.9326 82.7965 65.4006V62.4601C82.7963 61.9282 82.3591 61.4927 81.8244 61.4927ZM72.1441 45.7654H60.0339C59.4995 45.7654 59.0621 45.3397 59.0621 44.7981V38.1145C59.0621 37.5825 59.4995 37.1472 60.0339 37.1472H67.4109C67.7317 37.1472 68.0232 37.302 68.2079 37.5535L72.9411 44.2468C73.3881 44.8853 72.9313 45.7654 72.1441 45.7654ZM66.0599 61.4927C62.7165 61.4927 60.0145 64.1912 60.0145 67.5186C60.0145 70.8363 62.7165 73.5349 66.0599 73.5349C69.3935 73.5349 72.1052 70.8363 72.1052 67.5186C72.1052 64.1915 69.3935 61.4927 66.0599 61.4927ZM66.0599 70.527C64.3881 70.527 63.0372 69.1729 63.0372 67.5189C63.0372 65.8552 64.3881 64.5106 66.0599 64.5106C67.7315 64.5106 69.0826 65.8552 69.0826 67.5189C69.0826 69.1729 67.7316 70.527 66.0599 70.527ZM15.6561 61.4927C15.1215 61.4927 14.6841 61.9282 14.6841 62.46V65.4006C14.6841 65.9326 15.1215 66.3679 15.6561 66.3679H26.5221C26.804 64.4333 27.7856 62.7212 29.2047 61.4929H15.6561V61.4927ZM34.414 61.4927C31.0804 61.4927 28.3687 64.1912 28.3687 67.5186C28.3687 70.8363 31.0804 73.5349 34.414 73.5349C37.7574 73.5349 40.4594 70.8363 40.4594 67.5186C40.4595 64.1915 37.7576 61.4927 34.414 61.4927ZM34.414 70.527C32.7424 70.527 31.3914 69.1729 31.3914 67.5189C31.3914 65.8552 32.7424 64.5106 34.414 64.5106C36.0857 64.5106 37.4368 65.8552 37.4368 67.5189C37.4368 69.1729 36.0857 70.527 34.414 70.527ZM48.9541 25.8982H37.6895C38.2435 27.5328 38.5351 29.2835 38.5351 31.0923C38.5351 40.2231 31.0708 47.6516 21.8959 47.6516C20.224 47.6516 18.601 47.4002 17.0751 46.9455V57.6336C17.0751 58.1656 17.5124 58.6009 18.047 58.6009H50.8979C51.4326 58.6009 51.8699 58.1656 51.8699 57.6336V28.7999C51.8698 27.1943 50.5674 25.8982 48.9541 25.8982ZM21.8981 16.4651C13.7823 16.4651 7.20325 23.0124 7.20325 31.0891C7.20325 39.1659 13.7823 45.7133 21.8981 45.7133C30.0138 45.7133 36.593 39.1659 36.593 31.0891C36.593 23.0124 30.0138 16.4651 21.8981 16.4651ZM21.8981 42.3854C15.6293 42.3854 10.5473 37.3279 10.5473 31.0891C10.5473 24.8503 15.6293 19.7929 21.8981 19.7929C28.167 19.7929 33.2489 24.8505 33.2489 31.0891C33.2489 37.3279 28.167 42.3854 21.8981 42.3854ZM26.2332 33.4748C26.1079 33.4748 25.9797 33.4587 25.8525 33.4248L21.1165 32.1544C20.4806 31.9834 20.0383 31.4092 20.0383 30.7535V23.4992C20.0383 22.6982 20.6913 22.0483 21.4961 22.0483C22.301 22.0483 22.954 22.6982 22.954 23.4992V29.6418L26.6119 30.6231C27.3893 30.8319 27.8496 31.6283 27.6398 32.4017C27.4643 33.0488 26.8759 33.4748 26.2332 33.4748Z" fill="#652B5A"/>
</g>
<defs>
<clipPath id="clip0">
<rect width="90" height="90" fill="white"/>
</clipPath>
</defs>
</svg>
