<svg width="90" height="90" viewBox="0 0 90 90" fill="none" xmlns="http://www.w3.org/2000/svg">
<g clip-path="url(#clip0)">
<rect width="90" height="90" fill="white"/>
<path d="M89.6496 0.348877H0.350586V89.6512H89.6496V0.348877Z" stroke="#808080" stroke-width="1.25609" stroke-linecap="round" stroke-linejoin="round"/>
<path d="M45.0001 18.4052C41.3367 18.4052 38.3562 21.3714 38.3562 25.0171C38.3562 28.6629 41.3367 31.6291 45.0001 31.6291C48.6635 31.6291 51.6441 28.6629 51.6441 25.0171C51.6441 21.3714 48.6635 18.4052 45.0001 18.4052Z" fill="#652B5A"/>
<path d="M45.0001 7.38513C35.2309 7.38513 27.283 15.2948 27.283 25.0171C27.283 28.3512 28.2236 31.5992 30.004 34.4099L45.0001 58.224L59.9963 34.4099C61.7766 31.5992 62.7173 28.3512 62.7173 25.0171C62.7173 15.2948 54.7694 7.38513 45.0001 7.38513ZM45.0001 36.0371C38.8949 36.0371 33.9269 31.093 33.9269 25.0171C33.9269 18.9412 38.8949 13.9971 45.0001 13.9971C51.1054 13.9971 56.0734 18.9412 56.0734 25.0171C56.0734 31.093 51.1054 36.0371 45.0001 36.0371Z" fill="#652B5A"/>
<path d="M34.2216 82.6148H55.7711L54.068 69.2439H35.882L34.2216 82.6148Z" fill="#652B5A"/>
<path d="M36.4357 64.8359H43.9528L37.6797 54.9346L36.4357 64.8359Z" fill="#652B5A"/>
<path d="M57.9673 64.8359H75.4151L69.8785 51.6119H56.2631L57.9673 64.8359Z" fill="#652B5A"/>
<path d="M14.5851 64.8359H31.9724L33.6333 51.6119H20.1217L14.5851 64.8359Z" fill="#652B5A"/>
<path d="M46.0475 64.8359H53.5L52.241 55.0614L46.0475 64.8359Z" fill="#652B5A"/>
<path d="M31.4187 69.2439H12.7395L7.20349 82.6148H29.7583L31.4187 69.2439Z" fill="#652B5A"/>
<path d="M77.2607 69.2439H58.5348L60.2384 82.6148H82.7967L77.2607 69.2439Z" fill="#652B5A"/>
</g>
<defs>
<clipPath id="clip0">
<rect width="90" height="90" fill="white"/>
</clipPath>
</defs>
</svg>
