<svg width="45" height="45" viewBox="0 0 45 45" fill="none" xmlns="http://www.w3.org/2000/svg">
<rect width="45" height="45" fill="white"/>
<path d="M23.6482 8.27627C23.0818 8.25658 22.6048 8.69924 22.5822 9.26555C22.5624 9.8292 23.0072 10.3039 23.5763 10.3264C27.4966 10.4626 30.5754 13.7482 30.4384 17.6495C30.4286 17.9314 30.5334 18.1923 30.7129 18.3839C30.8924 18.5754 31.1467 18.6977 31.4299 18.7075C31.9963 18.7272 32.4732 18.2846 32.4959 17.7183C32.6752 12.687 28.7042 8.4492 23.6482 8.27627Z" fill="#652B5A"/>
<path d="M23.5109 12.1886C22.9445 12.1689 22.4675 12.6116 22.4448 13.1779C22.4251 13.7415 22.8699 14.2162 23.4389 14.2388C25.191 14.2969 26.5682 15.7667 26.5043 17.51C26.4944 17.7918 26.5992 18.0528 26.7787 18.2443C26.9583 18.4359 27.2125 18.5582 27.4957 18.568C28.0621 18.5877 28.5391 18.1451 28.5588 17.5814C28.6652 14.7081 26.3984 12.289 23.5109 12.1886Z" fill="#652B5A"/>
<path d="M23.3309 18.7615C24.0882 18.7615 24.7021 18.1506 24.7021 17.397C24.7021 16.6434 24.0882 16.0325 23.3309 16.0325C22.5736 16.0325 21.9597 16.6434 21.9597 17.397C21.9597 18.1506 22.5736 18.7615 23.3309 18.7615Z" fill="#652B5A"/>
<path d="M36.4913 17.8544C36.7419 10.6346 31.0453 4.55532 23.7905 4.30044C23.2241 4.28077 22.7472 4.72341 22.7245 5.28972C22.7047 5.85337 23.1495 6.32803 23.7186 6.35058C29.8408 6.56057 34.6478 11.6905 34.4339 17.7856C34.424 18.0675 34.5288 18.3284 34.7083 18.52C34.8879 18.7115 35.1421 18.8338 35.4253 18.8436C35.9917 18.8633 36.4687 18.4207 36.4913 17.8544Z" fill="#652B5A"/>
<path d="M12.6367 9.39246C13.8055 9.39246 14.753 10.3354 14.753 11.4985V19.9227C14.753 21.0858 13.8055 22.0287 12.6367 22.0287C11.4679 22.0287 10.5204 21.0858 10.5204 19.9227V11.4985C10.5204 10.3354 11.4679 9.39246 12.6367 9.39246Z" fill="#652B5A"/>
<path d="M21.1019 9.39246C22.2707 9.39246 23.2182 10.3354 23.2182 11.4985V19.9227C23.2182 21.0858 22.2707 22.0287 21.1019 22.0287C19.9331 22.0287 18.9856 21.0858 18.9856 19.9227V11.4985C18.9856 10.3354 19.9331 9.39246 21.1019 9.39246Z" fill="#652B5A"/>
<path d="M11.2258 15.5702H22.5127C24.0711 15.5702 25.3344 16.8274 25.3344 18.3782V38.0346C25.3344 39.5855 24.0711 40.8427 22.5127 40.8427H11.2258C9.66738 40.8427 8.40405 39.5855 8.40405 38.0346V18.3782C8.40405 16.8274 9.66738 15.5702 11.2258 15.5702Z" fill="#652B5A"/>
<path d="M11.5785 19.8029L13.6948 19.7822" stroke="white" stroke-linecap="round" stroke-linejoin="round"/>
<path d="M15.811 19.8029L17.9274 19.7822" stroke="white" stroke-linecap="round" stroke-linejoin="round"/>
<path d="M20.0437 19.8029L22.16 19.7822" stroke="white" stroke-linecap="round" stroke-linejoin="round"/>
</svg>
