<svg width="233" height="234" viewBox="0 0 233 234" fill="none" xmlns="http://www.w3.org/2000/svg">
<path d="M27.4454 64.1584C18.4224 63.8433 10.8238 70.9291 10.463 79.9948C10.1479 89.0178 17.2337 96.6165 26.2994 96.9773C88.7528 99.1583 137.799 151.754 135.618 214.207C135.46 218.719 137.13 222.895 139.99 225.962C142.85 229.029 146.9 230.986 151.412 231.144C160.435 231.459 168.034 224.373 168.394 215.307C171.251 134.765 107.991 66.9268 27.4454 64.1584Z" fill="#652B5A"/>
<path d="M25.2582 126.789C16.2352 126.474 8.6366 133.559 8.27574 142.625C7.96066 151.648 15.0465 159.247 24.1122 159.608C52.0232 160.538 73.9637 184.066 72.9449 211.974C72.7873 216.486 74.4571 220.663 77.3171 223.729C80.1771 226.796 84.2272 228.753 88.7387 228.911C97.7617 229.226 105.36 222.14 105.675 213.117C107.37 167.121 71.2579 128.395 25.2582 126.789Z" fill="#652B5A"/>
<path d="M22.391 232.008C34.455 232.008 44.2347 222.228 44.2347 210.165C44.2347 198.101 34.455 188.321 22.391 188.321C10.3271 188.321 0.547363 198.101 0.547363 210.165C0.547363 222.228 10.3271 232.008 22.391 232.008Z" fill="#652B5A"/>
<path d="M232.043 217.486C236.035 101.91 145.285 4.59248 29.7122 0.512311C20.6892 0.197224 13.0905 7.28308 12.7297 16.3488C12.4146 25.3718 19.5005 32.9704 28.5662 33.3313C126.096 36.6928 202.674 118.813 199.267 216.385C199.109 220.897 200.779 225.074 203.639 228.141C206.499 231.208 210.549 233.165 215.061 233.322C224.084 233.637 231.682 226.551 232.043 217.486Z" fill="#652B5A"/>
</svg>
