<svg width="73" height="90" viewBox="0 0 73 90" fill="none" xmlns="http://www.w3.org/2000/svg">
<path d="M33.0082 0.728203C33.0352 0.753243 33.0616 0.780047 33.0873 0.808617C33.4463 1.20563 33.5867 1.83263 33.4834 2.39628H33.5148V48.7235C34.0819 48.3287 34.7093 48.0591 35.359 47.9145V1.44598H35.3785C35.277 0.971364 35.3372 0.443193 35.5738 0.035553C35.5782 0.027913 35.5827 0.0203379 35.5872 0.0128479C34.7067 0.110138 33.8368 0.348585 33.0082 0.72821V0.728203ZM31.2673 1.78847C30.8651 2.10215 30.4812 2.45629 30.1202 2.85085C28.3584 4.77634 27.4776 7.30004 27.4776 9.82372V9.83363V54.692H27.5028C27.3137 57.4561 28.1862 60.2907 30.1202 62.4044C33.6437 66.2555 39.3564 66.2555 42.8799 62.4044C44.8139 60.2907 45.6863 57.4561 45.4972 54.692H45.5225V9.83363V9.83358C45.5225 9.83029 45.5225 9.82701 45.5225 9.82372C45.5225 7.30004 44.6416 4.77634 42.8799 2.85085C42.5166 2.45372 42.1299 2.09755 41.7248 1.78232C41.7488 1.98617 41.743 2.19526 41.7061 2.39628H41.7376V9.82372V52.9074C41.7397 52.9946 41.7397 53.0818 41.7376 53.169V53.8702H41.6733C41.5054 54.9244 41.0157 55.9372 40.2047 56.7498C38.1586 58.7997 34.8413 58.7997 32.7953 56.7498C31.9843 55.9372 31.4947 54.9244 31.3267 53.8702H31.2886V53.5797C31.2516 53.2197 31.2516 52.8567 31.2886 52.4967V2.39628H31.3081C31.2651 2.19879 31.2512 1.99184 31.2673 1.78846V1.78847ZM39.962 0.714607C39.1032 0.325117 38.2004 0.08691 37.288 0C37.5494 0.4002 37.6435 0.947404 37.5537 1.44598H37.5852V47.9024C38.2647 48.0459 38.9213 48.3257 39.5114 48.7418V2.39628H39.5309C39.4294 1.93027 39.4896 1.41168 39.7262 1.01143C39.7955 0.894239 39.8751 0.795167 39.962 0.714607Z" fill="#FF4040"/>
<path d="M68.3484 37.1059C68.9615 40.2625 68.1464 43.684 65.9032 46.1358C62.7842 49.5447 57.9498 49.936 54.437 47.3098C57.1616 54.2454 55.7259 62.442 50.1296 68.0487C42.6021 75.5903 30.3978 75.5903 22.8703 68.0487C17.3623 62.5304 15.8846 54.5033 18.4372 47.6388C18.4364 47.6383 18.4356 47.6378 18.4347 47.6373C14.9706 49.896 10.4195 49.3955 7.43701 46.1358C4.96455 43.4335 4.22706 39.5531 5.22448 36.1479C-3.24083 49.805 -1.41877 67.8106 10.6906 79.5957C24.9448 93.4681 48.0552 93.4681 62.3093 79.5957C74.1376 68.0841 76.1507 50.6375 68.3484 37.1059ZM63.0191 30.0692C62.7866 29.8301 62.55 29.5934 62.3093 29.3592C62.2175 29.2699 62.1254 29.1812 62.033 29.093C62.0946 29.3096 62.151 29.5267 62.2022 29.7444C62.4782 29.8378 62.7508 29.9461 63.0191 30.0692Z" fill="#FF4040"/>
</svg>
